<svg width="24" height="24" viewBox="0 0 24 24" fill="none" xmlns="http://www.w3.org/2000/svg">
<path d="M11.8614 23.1253C18.4122 23.1253 23.7227 17.9485 23.7227 11.5627C23.7227 5.17678 18.4122 0 11.8614 0C5.31052 0 0 5.17678 0 11.5627C0 17.9485 5.31052 23.1253 11.8614 23.1253Z" fill="#FF4500"/>
<path d="M19.7739 11.5628C19.7739 10.6246 18.9956 9.87951 18.0471 9.87951C17.5801 9.87951 17.1553 10.0588 16.844 10.3486C15.6551 9.52072 14.0273 8.98267 12.2155 8.91374L13.008 5.29863L15.5842 5.83668C15.6127 6.47143 16.1504 6.98196 16.8158 6.98196C17.4951 6.98196 18.0471 6.44391 18.0471 5.78138C18.0471 5.1191 17.4951 4.58105 16.8158 4.58105C16.3345 4.58105 15.9097 4.85702 15.7116 5.25722L12.8384 4.66387C12.7534 4.64998 12.6685 4.66387 12.6118 4.70528C12.5411 4.74669 12.4986 4.81562 12.4846 4.89843L11.6068 8.92737C9.7668 8.98267 8.11068 9.52072 6.90758 10.3625C6.58356 10.0608 6.15255 9.89277 5.70448 9.89339C4.742 9.89339 3.97766 10.6521 3.97766 11.5767C3.97766 12.2665 4.40218 12.846 4.99687 13.1083C4.96837 13.2737 4.95439 13.4393 4.95439 13.6188C4.95439 16.2126 8.05422 18.324 11.8759 18.324C15.6976 18.324 18.7974 16.2265 18.7974 13.6188C18.7974 13.4532 18.7832 13.2737 18.755 13.1083C19.3494 12.846 19.7739 12.2526 19.7739 11.5628ZM7.91254 12.7632C7.91254 12.1009 8.46449 11.5628 9.14414 11.5628C9.82352 11.5628 10.3755 12.1009 10.3755 12.7632C10.3755 13.4254 9.82352 13.9637 9.14414 13.9637C8.46449 13.9774 7.91254 13.4254 7.91254 12.7632ZM14.8058 15.9506C13.9565 16.7785 12.3429 16.8338 11.8759 16.8338C11.3947 16.8338 9.78104 16.7646 8.94573 15.9506C8.81856 15.8263 8.81856 15.6332 8.94573 15.509C9.07317 15.385 9.27131 15.385 9.39874 15.509C9.93671 16.0334 11.0691 16.2126 11.8759 16.2126C12.6827 16.2126 13.8291 16.0334 14.3528 15.509C14.4803 15.385 14.6784 15.385 14.8058 15.509C14.919 15.6332 14.919 15.8263 14.8058 15.9506ZM14.5792 13.9774C13.8998 13.9774 13.3479 13.4393 13.3479 12.7771C13.3479 12.1148 13.8998 11.5767 14.5792 11.5767C15.2589 11.5767 15.8108 12.1148 15.8108 12.7771C15.8108 13.4254 15.2589 13.9774 14.5792 13.9774Z" fill="white"/>
</svg>
