<svg width="48" height="48" viewBox="0 0 48 48" fill="none" xmlns="http://www.w3.org/2000/svg">
<g id="Twitter">
<path id="back" fill-rule="evenodd" clip-rule="evenodd" d="M0 23.2024C0 10.3881 10.6564 0 23.8018 0C36.9472 0 47.6037 10.3881 47.6037 23.2024C47.6037 36.0168 36.9472 46.4049 23.8018 46.4049C10.6564 46.4049 0 36.0168 0 23.2024Z" fill="#55ACEE"/>
<path id="Shape" fill-rule="evenodd" clip-rule="evenodd" d="M24.6769 19.6321L24.7269 20.435L23.8944 20.3367C20.8643 19.9598 18.2172 18.6818 15.9696 16.5354L14.8707 15.4704L14.5877 16.2568C13.9884 18.01 14.3713 19.8615 15.6199 21.1067C16.2859 21.7949 16.1361 21.8932 14.9873 21.4836C14.5877 21.3525 14.2381 21.2542 14.2048 21.3034C14.0883 21.4181 14.4878 22.9091 14.8042 23.4989C15.237 24.3182 16.1194 25.121 17.0851 25.5962L17.9008 25.973L16.9352 25.9894C16.0029 25.9894 15.9696 26.0058 16.0695 26.3499C16.4024 27.4149 17.7177 28.5455 19.1828 29.037L20.215 29.3811L19.316 29.9054C17.9841 30.6591 16.4191 31.0851 14.8541 31.1179C14.1049 31.1343 13.4889 31.1998 13.4889 31.2489C13.4889 31.4128 15.5201 32.3303 16.7021 32.6908C20.2483 33.7558 24.4605 33.297 27.6238 31.4783C29.8714 30.1839 32.119 27.6115 33.1679 25.121C33.7339 23.7939 34.3 21.3689 34.3 20.2056C34.3 19.4519 34.3499 19.3536 35.2823 18.4524C35.8317 17.9281 36.3478 17.3546 36.4477 17.1908C36.6142 16.8795 36.5975 16.8795 35.7485 17.158C34.3333 17.6495 34.1335 17.584 34.8328 16.8467C35.3489 16.3224 35.9649 15.372 35.9649 15.0935C35.9649 15.0444 35.7152 15.1263 35.4321 15.2737C35.1324 15.4376 34.4665 15.6834 33.967 15.8308L33.068 16.1094L32.2522 15.5687C31.8027 15.2737 31.17 14.946 30.837 14.8477C29.9879 14.6183 28.6893 14.6511 27.9235 14.9133C25.8424 15.6506 24.5271 17.5512 24.6769 19.6321Z" fill="white"/>
</g>
</svg>
