<svg width="174" height="16" viewBox="0 0 174 16" fill="none" xmlns="http://www.w3.org/2000/svg">
<path d="M33.3333 16H35.96V5.41714L42.0658 16H44.3008L50.4066 5.41714V16H53.0333V0H50.4527L43.1948 12.6171L35.9139 0H33.3333V16Z" fill="black"/>
<path d="M59.1368 16H69.2978V13.3943H61.7634V9.30287H69.2978V6.69713H61.7634V2.60571H69.2978V0H59.1368V16Z" fill="black"/>
<path d="M79.3517 16H81.9784V2.60571H88.0611V0H73.2459V2.60571H79.3517V16Z" fill="black"/>
<path d="M103.76 16H106.64L99.1519 0H96.5944L89.1061 16H91.9863L93.2765 13.2114H102.447L103.76 16ZM94.4977 10.6057L97.8617 3.40571L101.225 10.6057H94.4977Z" fill="black"/>
<path d="M111.189 16H113.815V10.9714H117.202C120.428 10.9714 122.755 8.66287 122.755 5.48571C122.755 2.33143 120.428 0 117.202 0H111.189V16ZM113.815 8.36573V2.60571H117.202C118.907 2.60571 120.129 3.81714 120.129 5.48571C120.129 7.15427 118.907 8.36573 117.202 8.36573H113.815Z" fill="black"/>
<path d="M127.722 16H138.021V13.3943H130.349V0H127.722V16Z" fill="black"/>
<path d="M142.635 16H152.796V13.3943H145.261V9.30287H152.796V6.69713H145.261V2.60571H152.796V0H142.635V16Z" fill="black"/>
<path d="M156.905 16H160.292L165.131 10.08L169.946 16H173.333L166.813 8L173.333 0H169.969L165.131 5.92L160.292 0H156.905L163.426 8L156.905 16Z" fill="black"/>
<path fill-rule="evenodd" clip-rule="evenodd" d="M11.9863 11.1513C12.0904 11.3264 12.0826 11.5462 11.9663 11.7135L9.45273 15.3317C9.23607 15.6436 8.76907 15.6255 8.57707 15.2979L0.0721234 0.782807C-0.130975 0.436184 0.118993 0 0.520733 0H5.06581C5.24926 0 5.41913 0.0966713 5.51283 0.254388L11.9863 11.1513ZM24.1509 15.2177C24.3534 15.5644 24.1034 16 23.7019 16H19.1846C19 16 18.8293 15.9021 18.736 15.7429L9.97027 0.782807C9.7672 0.436184 10.0171 0 10.4189 0H14.9615C15.1463 0 15.3172 0.09809 15.4104 0.257653L24.1509 15.2177ZM3.65815 15.8585C4.06114 15.8585 4.31094 15.4199 4.10533 15.0733L0.98874 9.8196C0.718993 9.36487 0.0216106 9.55613 0.0216106 10.0849V15.3385C0.0216106 15.6257 0.254399 15.8585 0.541557 15.8585H3.65815Z" fill="black"/>
</svg>
