<svg width="170" height="32" viewBox="0 0 170 32" fill="none" xmlns="http://www.w3.org/2000/svg">
<path d="M57.5797 17.3857H63.9867C64.8875 17.3857 65.6175 18.123 65.6175 19.0233C65.6175 19.9237 64.8875 20.661 63.9867 20.661H56.2595C56.1353 20.661 56.0188 20.7076 55.9333 20.7852L53.6035 22.7954C53.2463 23.1059 53.4638 23.688 53.9297 23.688H63.5984C63.5984 23.688 63.6061 23.688 63.6061 23.6802C63.6061 23.6724 63.6139 23.6724 63.6139 23.6724C63.7382 23.6802 63.8547 23.688 63.9867 23.688C66.5494 23.688 68.6307 21.6001 68.6307 19.0233C68.6307 16.5785 66.7591 14.5683 64.3672 14.3742C64.3672 14.3742 64.3594 14.3742 64.3594 14.3665C64.3594 14.3587 64.3594 14.3587 64.3517 14.3587H57.4555C56.5546 14.3587 55.8246 13.6214 55.8246 12.721C55.8246 11.8129 56.5546 11.0834 57.4555 11.0834H65.1671C65.2914 11.0834 65.4156 11.0368 65.5088 10.9514L67.6755 8.9412C68.0172 8.63075 67.792 8.0564 67.3338 8.0564H57.5875C57.5487 8.0564 57.5021 8.0564 57.4632 8.0564C54.9005 8.0564 52.8192 10.1442 52.8192 12.721C52.8192 15.2978 54.9005 17.3857 57.4632 17.3857C57.5021 17.3857 57.5409 17.3857 57.5797 17.3857Z" fill="black"/>
<path d="M94.8798 8.04865C94.6002 8.04865 94.375 8.27372 94.375 8.5609V23.1834C94.375 23.4628 94.6002 23.6957 94.8798 23.6957H106.606C106.746 23.6957 106.878 23.6336 106.979 23.5327L108.447 21.9571C108.75 21.6312 108.525 21.1034 108.074 21.1034H97.8386C97.559 21.1034 97.3338 20.8783 97.3338 20.5911V8.5609C97.3338 8.28149 97.1086 8.04865 96.829 8.04865H94.8798Z" fill="black"/>
<path fill-rule="evenodd" clip-rule="evenodd" d="M76.1016 8.04865C76.0938 8.05641 76.1016 8.05641 76.1016 8.04865C74.6028 8.1185 73.399 9.32152 73.3291 10.8195V20.6532C73.3291 20.692 73.3291 20.7386 73.3291 20.7774C73.3291 22.3374 74.5562 23.6103 76.1016 23.6724H86.741C88.2787 23.6026 89.5134 22.3297 89.5134 20.7774C89.5134 20.7386 89.5134 20.692 89.5134 20.6532V10.8272C89.4513 9.32928 88.2476 8.1185 86.7488 8.0564H76.1016V8.04865ZM78.0819 10.8272C77.1422 10.866 76.3889 11.6267 76.3501 12.5736V18.7594C76.3501 18.7827 76.3501 18.8138 76.3501 18.837C76.3501 19.815 77.1189 20.6222 78.0819 20.661H84.7529C85.7159 20.6222 86.4847 19.815 86.4847 18.837C86.4847 18.8138 86.4847 18.7827 86.4847 18.7594V12.5736C86.4459 11.6267 85.6926 10.8738 84.7529 10.8272H78.0819Z" fill="black"/>
<path fill-rule="evenodd" clip-rule="evenodd" d="M125.493 23.1834C125.493 23.4628 125.718 23.6957 125.998 23.6957H127.986C128.266 23.6957 128.491 23.4706 128.491 23.1834V11.0833C128.491 11.0445 128.491 10.998 128.491 10.9592C128.491 9.39911 127.272 8.12624 125.749 8.06415H115.537C115.498 8.06415 115.452 8.06415 115.413 8.06415C113.829 8.06415 112.547 9.3603 112.547 10.9669C112.547 11.0057 112.547 11.0523 112.547 11.0911V23.1912C112.547 23.4706 112.772 23.7034 113.052 23.7034H115.04C115.32 23.7034 115.545 23.4783 115.545 23.1912V18.154C115.545 17.8746 115.77 17.6417 116.05 17.6417H125.012C125.291 17.6417 125.517 17.8668 125.517 18.154V23.1834H125.493ZM115.522 14.8554V12.3407C115.522 11.3628 116.306 10.5711 117.269 10.5711H123.746C124.709 10.5711 125.493 11.3628 125.493 12.3407V14.8554C125.493 15.1348 125.268 15.3676 124.988 15.3676H116.026C115.747 15.3676 115.522 15.1426 115.522 14.8554Z" fill="black"/>
<path fill-rule="evenodd" clip-rule="evenodd" d="M167.468 23.6957C167.189 23.6957 166.964 23.4706 166.964 23.1834V18.1463C166.964 17.8668 166.738 17.634 166.459 17.634H157.396C157.116 17.634 156.891 17.8591 156.891 18.1463V23.1834C156.891 23.4628 156.666 23.6957 156.386 23.6957H154.383C154.103 23.6957 153.878 23.4706 153.878 23.1834V11.0834C153.878 11.0445 153.878 10.998 153.878 10.9592C153.878 9.36032 155.175 8.0564 156.775 8.0564C156.813 8.0564 156.86 8.0564 156.899 8.0564H167.228C168.765 8.12625 170 9.39912 170 10.9514C170 10.9902 170 11.0368 170 11.0756V23.1757C170 23.4551 169.775 23.6879 169.495 23.6879H167.468V23.6957ZM156.883 12.3407V14.8554C156.883 15.1348 157.108 15.3677 157.388 15.3677H166.451C166.731 15.3677 166.956 15.1426 166.956 14.8554V12.3407C166.956 11.3628 166.164 10.5711 165.193 10.5711H158.646C157.675 10.5711 156.883 11.3628 156.883 12.3407Z" fill="black"/>
<path d="M135.969 8.04865C136.117 8.04865 136.257 8.11074 136.35 8.22716L145.265 18.8525C145.568 19.2096 146.151 18.9922 146.151 18.5188V8.5609C146.151 8.28149 146.376 8.04865 146.655 8.04865H148.644C148.923 8.04865 149.148 8.27372 149.148 8.5609V23.1834C149.148 23.4628 148.923 23.6957 148.644 23.6957H146.174C146.166 23.6957 146.158 23.6879 146.158 23.6801C146.158 23.6724 146.158 23.6724 146.151 23.6646L137.08 13.1169C136.777 12.7598 136.195 12.9849 136.195 13.4506V23.1912C136.195 23.4706 135.97 23.7034 135.69 23.7034H133.686C133.407 23.7034 133.182 23.4783 133.182 23.1912V8.5609C133.182 8.28149 133.407 8.04865 133.686 8.04865H135.969Z" fill="black"/>
<path d="M6.58052 24.2312C6.82903 23.9828 7.16297 23.8431 7.51244 23.8431H39.8578C40.448 23.8431 40.7431 24.5572 40.3237 24.9685L33.9323 31.3485C33.6838 31.5968 33.3499 31.7365 33.0004 31.7365H0.662837C0.0726222 31.7365 -0.222485 31.0225 0.196878 30.6111L6.58052 24.2312Z" fill="url(#paint0_linear_420_1161)"/>
<path d="M6.58052 0.388072C6.82903 0.139706 7.16297 0 7.51244 0H39.8578C40.448 0 40.7431 0.714052 40.3237 1.12541L33.9323 7.5053C33.6838 7.75367 33.3499 7.89338 33.0004 7.89338H0.662837C0.0726222 7.89338 -0.222485 7.17932 0.196878 6.76797L6.58052 0.388072Z" fill="url(#paint1_linear_420_1161)"/>
<path d="M33.9323 12.2321C33.6838 11.9837 33.3499 11.844 33.0004 11.844H0.662837C0.0726221 11.844 -0.222485 12.558 0.196878 12.9694L6.58828 19.3493C6.83679 19.5977 7.17073 19.7374 7.5202 19.7374H39.8655C40.4557 19.7374 40.7508 19.0233 40.3315 18.612L33.9323 12.2321Z" fill="url(#paint2_linear_420_1161)"/>
<defs>
<linearGradient id="paint0_linear_420_1161" x1="36.7695" y1="-3.81219" x2="14.4065" y2="39.047" gradientUnits="userSpaceOnUse">
<stop stop-color="#00FFA3"/>
<stop offset="1" stop-color="#DC1FFF"/>
</linearGradient>
<linearGradient id="paint1_linear_420_1161" x1="26.9822" y1="-8.919" x2="4.61919" y2="33.9402" gradientUnits="userSpaceOnUse">
<stop stop-color="#00FFA3"/>
<stop offset="1" stop-color="#DC1FFF"/>
</linearGradient>
<linearGradient id="paint2_linear_420_1161" x1="31.8447" y1="-6.38181" x2="9.48166" y2="36.4774" gradientUnits="userSpaceOnUse">
<stop stop-color="#00FFA3"/>
<stop offset="1" stop-color="#DC1FFF"/>
</linearGradient>
</defs>
</svg>
