<svg width="24" height="18" viewBox="0 0 24 18" fill="none" xmlns="http://www.w3.org/2000/svg">
<path d="M20.1493 1.58002C18.6322 0.910169 17.0054 0.416654 15.3045 0.133998C15.2735 0.128543 15.2426 0.142176 15.2266 0.169442C15.0174 0.527532 14.7856 0.99469 14.6233 1.36187C12.7939 1.09831 10.9738 1.09831 9.18187 1.36187C9.01955 0.986528 8.77939 0.527532 8.56923 0.169442C8.55327 0.143086 8.52233 0.129453 8.49135 0.133998C6.79137 0.415751 5.16456 0.909266 3.64657 1.58002C3.63343 1.58547 3.62217 1.59457 3.61469 1.60637C0.528987 6.04258 -0.316317 10.3698 0.0983612 14.6433C0.100237 14.6642 0.112434 14.6842 0.129321 14.6969C2.16518 16.1356 4.13726 17.0091 6.07272 17.588C6.10369 17.5971 6.13651 17.5862 6.15623 17.5617C6.61406 16.96 7.02218 16.3256 7.3721 15.6585C7.39275 15.6194 7.37304 15.573 7.33083 15.5576C6.68349 15.3213 6.06709 15.0332 5.47415 14.706C5.42725 14.6796 5.4235 14.6151 5.46664 14.5842C5.59142 14.4942 5.71623 14.4006 5.83537 14.3061C5.85693 14.2888 5.88696 14.2852 5.91231 14.2961C9.80763 16.0075 14.0248 16.0075 17.8741 14.2961C17.8995 14.2843 17.9295 14.2879 17.952 14.3052C18.0712 14.3997 18.196 14.4942 18.3217 14.5842C18.3648 14.6151 18.362 14.6796 18.3151 14.706C17.7222 15.0395 17.1058 15.3213 16.4575 15.5567C16.4153 15.5721 16.3965 15.6194 16.4172 15.6585C16.7746 16.3247 17.1827 16.9591 17.6321 17.5607C17.6509 17.5862 17.6846 17.5971 17.7156 17.588C19.6604 17.0091 21.6325 16.1356 23.6684 14.6969C23.6862 14.6842 23.6975 14.6651 23.6993 14.6442C24.1956 9.70352 22.8681 5.41183 20.1802 1.60728C20.1736 1.59457 20.1624 1.58547 20.1493 1.58002ZM7.9538 12.0411C6.78104 12.0411 5.81472 11.0051 5.81472 9.73262C5.81472 8.46019 6.7623 7.42409 7.9538 7.42409C9.15465 7.42409 10.1116 8.46928 10.0928 9.73262C10.0928 11.0051 9.14527 12.0411 7.9538 12.0411ZM15.8627 12.0411C14.69 12.0411 13.7236 11.0051 13.7236 9.73262C13.7236 8.46019 14.6712 7.42409 15.8627 7.42409C17.0636 7.42409 18.0205 8.46928 18.0018 9.73262C18.0018 11.0051 17.0636 12.0411 15.8627 12.0411Z" fill="#5865F2"/>
</svg>
