<svg width="48" height="48" viewBox="0 0 48 48" fill="none" xmlns="http://www.w3.org/2000/svg">
<g id="Telegram">
<ellipse id="Oval" cx="23.8018" cy="23.2024" rx="23.8018" ry="23.2024" fill="url(#paint0_linear_373_760)"/>
<path id="Shape" fill-rule="evenodd" clip-rule="evenodd" d="M19.4369 33.8373C18.6658 33.8373 18.7968 33.5535 18.5309 32.8378L16.2633 25.5629L33.718 15.4688" fill="#C8DAEA"/>
<path id="Shape_2" fill-rule="evenodd" clip-rule="evenodd" d="M19.4395 33.8371C20.0345 33.8371 20.2974 33.5719 20.6295 33.2571L23.8031 30.2489L19.8445 27.9219" fill="#A9C9DD"/>
<path id="Shape_3" fill-rule="evenodd" clip-rule="evenodd" d="M19.8434 27.9219L29.4356 34.8303C30.5302 35.419 31.3202 35.1142 31.5928 33.8396L35.4973 15.9036C35.8971 14.3412 34.8864 13.6326 33.8392 14.0961L10.9121 22.714C9.34713 23.3259 9.35625 24.177 10.6269 24.5563L16.5105 26.3464L30.1317 17.9694C30.7747 17.5893 31.3648 17.7936 30.8805 18.2127" fill="url(#paint1_linear_373_760)"/>
</g>
<defs>
<linearGradient id="paint0_linear_373_760" x1="17.8538" y1="1.93508" x2="6.45672" y2="29.2136" gradientUnits="userSpaceOnUse">
<stop stop-color="#37AEE2"/>
<stop offset="1" stop-color="#1E96C8"/>
</linearGradient>
<linearGradient id="paint1_linear_373_760" x1="20.8229" y1="24.6274" x2="23.2501" y2="32.6816" gradientUnits="userSpaceOnUse">
<stop stop-color="#EFF7FC"/>
<stop offset="1" stop-color="white"/>
</linearGradient>
</defs>
</svg>
